<svg viewBox="0 0 1267.000000 1316.000000" preserveAspectRatio="xMidYMid meet" class="bike-cakes-container"
            id="bike">

            
                <path d="M10525 13150 c-16 -4 -60 -28 -97 -53 -96 -65 -207 -104 -418 -148
       -102 -20 -244 -51 -316 -68 -168 -38 -298 -61 -352 -61 l-43 0 8 38 c14 67 9
       123 -12 138 -58 43 -130 18 -155 -53 -13 -38 -12 -46 2 -77 11 -23 30 -40 57
       -52 70 -31 49 -44 -70 -44 -44 0 -89 -5 -99 -10 -24 -13 -41 -72 -30 -108 18
       -59 86 -177 111 -191 64 -36 107 20 87 115 -13 60 -3 69 90 77 38 4 95 16 127
       27 146 50 206 8 175 -125 -5 -22 -14 -132 -20 -245 -6 -113 -17 -259 -25 -325
       -8 -66 -17 -168 -21 -227 -4 -60 -10 -108 -14 -108 -4 0 -36 13 -71 30 -129
       59 -239 56 -376 -11 -147 -73 -261 -198 -349 -383 -59 -125 -136 -361 -171
       -523 -27 -123 -28 -139 -28 -418 0 -309 7 -381 80 -816 47 -278 101 -412 247
       -617 151 -211 224 -273 345 -292 181 -30 393 120 504 355 80 172 169 478 190
       655 13 116 13 523 -1 640 -6 47 -14 159 -20 249 -11 184 -22 219 -77 235 -38
       12 -38 13 -53 241 -9 133 -14 168 -33 205 -27 54 -91 93 -139 83 l-30 -6 7
       149 c4 82 9 151 11 153 9 9 102 -80 152 -145 144 -189 226 -433 311 -924 64
       -367 77 -627 46 -892 -56 -484 -239 -860 -510 -1053 -81 -57 -121 -73 -224
       -85 -133 -17 -261 3 -465 71 -183 61 -501 109 -722 109 -237 0 -590 -45 -896
       -114 -461 -105 -965 -153 -1688 -163 -771 -10 -1006 17 -2250 261 -451 88
       -682 128 -1017 176 -389 56 -1097 140 -1104 132 -6 -7 -1169 -7562 -1169
       -7593 0 -13 19 -17 111 -23 130 -8 340 -34 559 -71 318 -53 476 -53 769 -3
       109 19 166 22 416 22 160 1 345 -1 412 -3 138 -5 133 3 56 -84 -98 -111 -124
       -316 -63 -480 58 -154 231 -310 476 -427 268 -129 558 -195 969 -220 94 -6
       262 -20 375 -31 263 -26 620 -36 771 -20 139 15 249 38 484 103 99 27 262 72
       363 99 311 83 424 135 534 240 125 122 188 351 143 524 -21 78 -55 121 -120
       149 -31 14 -64 39 -81 61 -40 51 -75 69 -100 50 -17 -12 -19 -26 -17 -114 l3
       -100 -38 -31 c-49 -40 -144 -69 -256 -77 -50 -3 -103 -12 -117 -19 -16 -8 -39
       -38 -59 -79 -25 -51 -42 -71 -75 -90 -51 -30 -70 -31 -177 -5 -46 11 -95 20
       -110 20 -32 0 -33 5 -18 113 18 125 12 116 71 105 41 -7 73 -5 157 12 98 20
       113 21 223 9 100 -11 119 -10 131 2 16 16 73 291 65 313 -3 8 -32 24 -64 36
       -65 25 -138 29 -293 16 -78 -7 -106 -6 -153 8 -32 9 -66 14 -76 11 -15 -4 -24
       -53 -62 -313 l-44 -307 -50 -16 c-28 -9 -53 -15 -56 -13 -3 2 -9 97 -13 211
       -7 210 -11 230 -46 217 -8 -3 -51 -8 -95 -11 -64 -4 -96 -1 -160 17 -94 27
       -179 29 -258 6 -56 -16 -57 -17 -57 -54 0 -71 23 -282 32 -282 4 0 8 -6 8 -12
       0 -10 32 -13 128 -13 113 0 136 -3 209 -28 57 -20 103 -29 148 -29 58 0 65 -2
       65 -20 0 -11 -15 -34 -32 -52 -18 -18 -50 -51 -71 -74 -34 -39 -41 -42 -87
       -42 -31 0 -94 14 -163 37 -93 31 -125 37 -194 36 -70 0 -91 -5 -150 -32 -92
       -44 -131 -43 -235 7 -46 21 -112 51 -148 66 -108 45 -98 18 -111 312 -11 260
       -15 281 -49 268 -8 -3 -51 -8 -95 -11 -64 -4 -96 -1 -160 17 -94 27 -179 29
       -258 6 -56 -16 -57 -17 -57 -54 0 -71 23 -282 32 -282 4 0 8 -6 8 -12 0 -10
       32 -13 128 -13 113 0 136 -3 209 -28 56 -19 103 -29 147 -29 63 0 64 -1 70
       -30 11 -58 8 -81 -11 -73 -88 34 -205 22 -301 -31 -84 -45 -112 -44 -170 7
       -99 87 -181 109 -298 79 -147 -38 -226 -23 -289 54 -18 23 -63 77 -99 121 -77
       94 -90 117 -116 222 -11 44 -27 84 -37 92 -17 13 -16 17 14 80 43 87 57 179
       43 282 -21 150 -57 241 -156 384 -36 54 -73 114 -81 134 -22 51 -19 145 7 212
       32 87 90 138 104 92 2 -10 19 -66 36 -124 30 -102 30 -106 14 -145 -22 -52
       -22 -147 -1 -209 37 -108 159 -235 288 -300 84 -43 172 -64 549 -134 536 -99
       729 -121 1056 -121 213 0 347 15 458 50 183 58 211 63 406 66 102 2 244 8 315
       14 232 19 314 46 413 135 60 54 67 52 102 -20 20 -41 21 -54 15 -187 -6 -127
       -4 -147 12 -178 42 -81 149 -92 468 -49 151 20 221 24 435 24 235 0 262 -2
       339 -23 108 -30 178 -57 331 -127 160 -73 221 -96 346 -129 201 -52 461 -74
       689 -57 218 16 325 31 325 47 0 16 -21 17 -111 4 -147 -21 -384 -31 -523 -21
       -261 19 -442 62 -640 153 -196 89 -299 129 -396 154 -178 47 -456 48 -805 3
       -218 -28 -337 -29 -387 -5 -55 26 -62 54 -53 206 7 141 1 176 -43 242 -29 45
       -24 54 47 95 81 47 117 81 149 140 59 111 61 256 7 363 -32 62 -65 87 -207
       154 l-116 54 16 66 c15 63 17 65 41 58 14 -4 96 -6 182 -4 128 2 172 -1 248
       -18 82 -18 94 -19 107 -5 15 15 94 264 94 297 0 20 -47 50 -115 73 -39 14 -81
       17 -185 16 -118 -1 -144 2 -204 23 -39 13 -75 22 -81 20 -7 -3 -38 -116 -70
       -252 -31 -136 -58 -248 -59 -249 -1 -1 -26 7 -56 17 -102 35 -290 21 -336 -25
       -43 -43 -5 -90 120 -151 39 -19 74 -40 78 -47 13 -20 9 -76 -6 -106 -18 -34
       -77 -87 -121 -108 -32 -15 -34 -15 -67 11 -19 14 -38 26 -41 26 -3 0 -18 5
       -33 10 -24 10 -25 12 -12 28 57 64 63 150 29 390 -22 151 -43 208 -88 238
       l-24 15 49 53 c53 59 72 107 72 186 0 77 -17 121 -75 197 -47 62 -124 133
       -145 133 -21 0 -40 -34 -40 -73 0 -23 -6 -69 -14 -102 -19 -82 -29 -215 -20
       -272 5 -38 15 -56 46 -86 25 -24 33 -37 23 -37 -41 0 -95 -41 -122 -93 l-28
       -52 3 -195 c3 -178 5 -198 25 -235 25 -45 72 -80 131 -97 l41 -12 -35 -6 c-96
       -15 -206 26 -299 113 -31 29 -84 67 -118 84 -33 18 -66 40 -73 48 -14 17 -17
       16 83 45 156 44 167 64 167 290 0 140 -3 171 -19 206 -23 51 -84 120 -124 141
       l-30 15 53 27 c79 38 95 66 94 159 0 60 -6 91 -27 142 -33 79 -90 157 -135
       183 -52 30 -72 10 -118 -120 -32 -90 -39 -120 -38 -183 1 -87 27 -158 68 -185
       l26 -17 -45 -29 c-68 -43 -73 -61 -77 -309 -3 -212 -3 -216 23 -276 l25 -61
       -70 -36 c-39 -20 -109 -69 -156 -108 l-85 -71 -7 44 c-11 71 -9 238 4 300 11
       51 10 63 -8 105 -12 31 -30 54 -51 66 -29 17 -40 17 -105 7 -49 -8 -81 -8 -98
       -2 l-25 10 30 12 c17 6 53 16 82 22 47 10 56 8 104 -16 49 -24 63 -26 176 -26
       91 0 123 3 124 13 4 44 -20 73 -71 87 -34 9 -148 1 -232 -16 -23 -5 -31 0 -48
       28 -19 30 -21 42 -14 118 10 120 6 177 -17 230 -38 87 -157 179 -197 153 -14
       -8 -16 -23 -14 -71 3 -38 -3 -83 -13 -119 -32 -107 -34 -122 -19 -191 8 -37
       14 -89 14 -117 0 -31 7 -61 19 -80 l18 -30 -32 -45 c-55 -77 -66 -137 -45
       -251 5 -30 13 -104 18 -164 10 -125 23 -155 81 -184 79 -40 163 -33 246 20
       l48 30 -7 -32 c-14 -72 -75 -103 -190 -97 -59 3 -86 10 -147 40 -74 37 -253
       173 -319 242 l-35 37 47 39 c25 22 57 61 69 88 20 41 23 61 21 147 -1 81 10
       155 23 155 1 0 16 -7 33 -16 18 -8 46 -14 64 -12 30 3 33 6 36 40 3 33 0 40
       -23 50 -20 9 -37 9 -68 1 -23 -6 -45 -9 -49 -7 -13 8 -27 76 -22 103 9 43 -13
       107 -45 134 -17 14 -50 28 -77 32 -74 11 -76 13 -41 49 46 46 71 124 71 221 0
       87 -12 121 -61 167 -34 32 -73 48 -118 48 -40 0 -51 -24 -37 -75 6 -20 4 -49
       -6 -85 -27 -102 -1 -245 52 -289 14 -12 12 -18 -23 -56 -57 -62 -65 -94 -46
       -206 8 -52 15 -126 15 -165 0 -105 37 -213 111 -320 l28 -41 -62 -31 c-141
       -71 -308 -83 -567 -43 -80 13 -147 25 -149 27 -3 2 3 20 12 38 12 27 34 44 96
       76 88 46 136 97 147 158 16 87 -35 125 -165 125 -69 0 -101 -6 -161 -28 -41
       -15 -95 -34 -120 -42 -25 -7 -85 -27 -133 -42 l-88 -29 -8 22 c-5 11 -25 80
       -46 153 -22 77 -43 134 -52 137 -8 3 -31 -3 -51 -13 -62 -31 -116 -42 -240
       -45 -125 -3 -182 -18 -255 -67 l-36 -25 49 -142 c27 -78 56 -149 65 -158 15
       -15 24 -14 119 10 88 23 122 26 227 24 l124 -2 -22 -45 c-33 -66 -45 -146 -33
       -209 12 -63 16 -71 98 -192 73 -107 103 -169 132 -273 39 -139 21 -321 -39
       -406 l-22 -31 -392 6 -392 6 -215 -32 c-265 -39 -445 -42 -645 -11 -385 60
       -473 72 -608 83 l-147 12 5 30 c3 17 264 1714 580 3770 316 2057 577 3742 580
       3745 6 6 505 -52 865 -100 455 -61 730 -108 1423 -244 1028 -202 1441 -245
       2168 -224 702 20 1125 64 1604 169 353 77 576 104 865 104 282 0 496 -32 755
       -114 66 -21 147 -44 180 -51 86 -19 277 -17 345 4 173 52 363 240 487 483 119
       231 185 506 202 842 13 260 -10 487 -95 917 -90 449 -193 681 -382 855 l-75
       69 7 118 c4 65 14 170 21 233 8 63 19 203 25 310 5 107 15 229 22 272 9 61 9
       83 -2 108 -25 61 -93 74 -208 40 -37 -11 -102 -24 -146 -29 -43 -5 -83 -14
       -90 -21 -6 -6 -11 -45 -11 -93 0 -81 0 -82 -25 -82 -21 0 -32 13 -67 80 -45
       85 -55 143 -28 165 10 9 32 11 68 7 65 -8 122 5 152 33 14 13 31 20 39 17 22
       -9 177 16 368 58 89 20 247 54 349 75 210 43 327 85 430 155 76 52 112 57 174
       24 53 -28 112 -85 136 -131 18 -36 26 -98 13 -111 -17 -17 -95 50 -157 134
       -14 20 -37 39 -51 43 -26 6 -112 -26 -164 -62 -15 -10 -43 -24 -62 -31 -19 -6
       -52 -23 -72 -36 -21 -14 -64 -29 -101 -35 -35 -5 -77 -14 -93 -19 -16 -5 -66
       -12 -111 -15 -135 -10 -206 -45 -245 -119 -17 -33 -22 -63 -25 -142 -1 -55 -5
       -118 -8 -140 -8 -48 -28 -546 -26 -625 2 -80 26 -154 81 -250 69 -123 154
       -294 188 -380 50 -127 110 -322 122 -394 13 -84 23 -104 55 -112 27 -7 74 17
       76 39 1 6 0 62 -1 122 -2 133 13 357 41 644 20 205 21 218 5 298 -15 75 -29
       124 -50 175 -5 11 -1 18 14 23 42 13 53 47 55 184 3 111 0 133 -16 160 -24 39
       -64 59 -136 67 -74 9 -131 37 -139 69 -7 28 14 67 49 89 72 48 446 47 498 0
       44 -40 14 -95 -82 -150 -89 -50 -107 -84 -89 -166 15 -71 13 -120 -14 -338
       -14 -107 -30 -296 -36 -420 -18 -375 -30 -560 -46 -675 -8 -60 -19 -178 -24
       -260 -5 -83 -14 -174 -20 -204 -25 -132 -3 -269 51 -324 25 -24 36 -29 64 -24
       30 5 34 3 40 -21 14 -61 108 -233 154 -282 41 -43 52 -50 86 -50 32 0 45 7 78
       42 49 51 130 217 153 313 22 89 23 279 6 630 -17 355 -30 498 -57 650 -50 272
       -107 366 -201 335 -47 -16 -74 -54 -74 -104 0 -45 -13 -66 -41 -66 -29 0 -32
       16 -24 138 7 109 9 117 35 144 25 25 36 28 92 28 84 0 142 -35 195 -117 61
       -95 90 -197 114 -398 19 -159 22 -236 24 -667 l1 -486 30 -49 c22 -35 44 -55
       84 -75 114 -58 221 -57 400 1 118 39 267 51 643 51 272 -1 393 -6 570 -26 47
       -5 57 -4 57 8 0 17 -22 21 -220 39 -159 15 -677 14 -838 -1 -81 -7 -157 -21
       -220 -41 -204 -63 -333 -55 -420 25 -55 49 -54 41 -56 565 -2 430 -5 506 -24
       664 -30 248 -80 384 -174 474 -92 89 -265 88 -306 -2 -6 -14 -15 -81 -18 -148
       -8 -137 -1 -157 57 -157 42 0 69 31 69 81 0 51 13 74 47 87 60 20 98 -23 132
       -148 48 -177 68 -336 81 -625 5 -121 15 -306 21 -411 18 -286 1 -399 -87 -577
       -46 -95 -92 -147 -127 -147 -40 0 -101 72 -157 185 -76 152 -76 151 10 214
       121 90 185 155 223 229 58 109 66 233 22 326 -20 43 -49 62 -111 76 -74 17
       -146 -8 -210 -74 -69 -70 -78 -109 -70 -273 8 -135 23 -283 32 -307 6 -17 -25
       -29 -50 -20 -51 19 -81 181 -57 303 6 32 16 128 21 212 5 85 16 201 24 259 16
       114 32 329 41 565 9 216 23 388 46 570 15 118 19 182 14 245 -13 153 -10 162
       73 200 57 27 87 53 102 91 17 39 5 95 -24 114 -38 25 -206 42 -334 34 -175
       -12 -240 -42 -257 -119 -15 -69 52 -122 170 -135 54 -5 70 -12 95 -37 31 -31
       36 -64 21 -133 -4 -16 -3 -52 1 -80 13 -88 -38 -131 -103 -88 -43 28 -211 58
       -271 48 -90 -15 -104 -78 -26 -110 62 -24 131 -28 228 -12 47 8 89 12 94 10
       17 -11 45 -90 61 -174 13 -72 14 -104 5 -195 -35 -355 -41 -450 -46 -649 -3
       -125 -9 -224 -15 -230 -22 -22 -42 12 -59 96 -10 47 -42 157 -71 245 -49 148
       -104 265 -278 598 -36 69 -36 71 -36 190 0 192 13 534 24 621 5 44 7 101 4
       126 -10 82 30 159 101 196 15 8 82 21 148 29 65 7 124 16 129 20 5 3 37 10 71
       14 39 6 79 20 110 39 27 17 55 31 62 31 7 0 37 15 67 33 80 48 131 67 152 56
       9 -5 37 -36 62 -69 58 -75 125 -118 161 -102 24 12 30 34 25 91 -10 109 -188
       253 -286 231z m-1254 -181 c17 -17 19 -28 13 -62 -12 -78 -20 -88 -51 -76 -37
       14 -73 48 -73 70 0 29 21 66 44 77 32 16 44 14 67 -9z m699 -943 c47 -7 96
       -19 110 -26 l25 -14 -35 -8 c-19 -4 -75 -9 -125 -10 -71 -2 -97 1 -122 15 -40
       21 -41 32 -5 45 36 14 52 14 152 -2z m-591 -356 c33 -11 75 -29 95 -41 l36
       -21 -1 -71 c0 -40 -4 -120 -8 -179 -7 -85 -13 -113 -30 -137 -67 -94 -134
       -304 -196 -619 -49 -243 -53 -302 -30 -359 18 -42 30 -53 62 -53 31 0 56 40
       97 159 54 154 72 266 97 586 12 160 26 296 32 303 17 21 73 14 106 -13 41 -35
       48 -65 61 -245 6 -85 13 -169 15 -186 5 -28 2 -32 -36 -49 -73 -33 -109 -116
       -129 -297 -9 -79 -2 -200 16 -260 7 -25 41 -22 58 5 37 58 105 326 121 480 7
       60 20 71 49 41 20 -20 22 -29 36 -214 6 -85 15 -193 20 -240 12 -119 12 -511
       -1 -628 -19 -178 -121 -521 -202 -677 -58 -112 -167 -222 -271 -271 -71 -34
       -81 -36 -153 -33 -81 4 -141 27 -192 72 -37 34 -226 289 -265 359 -82 148
       -119 290 -177 683 -35 243 -41 311 -46 515 -6 255 1 337 43 529 73 327 207
       613 344 733 152 133 305 177 449 128z m106 -547 c-3 -32 -14 -166 -25 -298
       -17 -206 -25 -259 -55 -369 -34 -126 -78 -226 -102 -233 -19 -6 -43 52 -43
       102 0 44 63 379 96 510 36 143 112 345 130 345 3 0 2 -26 -1 -57z m224 -477
       c-13 -136 -80 -401 -109 -430 -15 -15 -23 81 -17 203 6 144 33 237 78 275 50
       42 56 36 48 -48z m925 -14 c31 -28 46 -77 46 -152 0 -84 -24 -159 -72 -226
       -28 -41 -230 -214 -249 -214 -19 0 -45 409 -30 465 20 76 92 141 171 155 44 8
       109 -6 134 -28z m-5797 -7027 c36 -25 102 -133 123 -202 40 -131 22 -187 -77
       -234 -65 -31 -65 -31 -91 -12 -43 32 -62 65 -72 126 -11 68 -3 121 35 227 43
       119 45 121 82 95z m-1237 -58 c54 -36 74 -80 74 -162 0 -86 -25 -162 -65 -201
       -23 -22 -33 -26 -46 -18 -53 33 -78 171 -49 272 12 43 13 66 6 92 -6 19 -10
       36 -10 37 0 12 64 -2 90 -20z m1736 -209 c96 -101 109 -128 109 -230 0 -80 -2
       -89 -30 -129 -17 -24 -46 -54 -64 -66 l-33 -22 -39 19 c-21 11 -44 30 -50 42
       -16 30 -12 240 6 308 8 30 15 74 15 98 0 28 4 42 13 42 8 0 41 -28 73 -62z
       m-1224 -17 c99 -63 123 -125 113 -291 -5 -94 -4 -124 9 -153 15 -37 15 -37
       -12 -43 -67 -13 -113 -27 -118 -35 -10 -17 -41 -9 -54 15 -7 13 -10 39 -8 58
       3 18 -1 57 -8 86 -19 74 -17 139 6 208 22 61 27 125 16 162 -10 29 1 28 56 -7z
       m-447 -237 c60 -13 94 -39 96 -73 1 -9 2 -43 3 -77 1 -40 8 -71 20 -88 16 -26
       16 -30 2 -67 -11 -27 -16 -71 -15 -143 1 -120 -6 -139 -76 -206 l-47 -45 -27
       33 c-67 79 -111 203 -111 317 -1 44 -7 115 -14 158 -16 100 -11 127 32 177 27
       33 39 40 56 35 12 -4 48 -13 81 -21z m1252 -38 c16 -13 41 -46 55 -73 25 -46
       26 -54 26 -218 l0 -169 -32 -32 c-22 -22 -56 -39 -118 -58 -47 -14 -93 -26
       -101 -26 -25 0 -61 106 -61 175 5 392 2 362 31 395 14 17 42 39 62 49 35 18
       37 18 72 0 20 -10 50 -29 66 -43z m1204 -23 c54 -19 55 -22 37 -88 -13 -50
       -15 -50 -73 -30 -30 11 -41 11 -47 2 -9 -15 6 -23 66 -38 56 -13 60 -10 86 75
       9 27 22 52 29 54 14 5 13 -10 -4 -73 -10 -39 8 -50 59 -35 70 19 153 9 228
       -28 58 -29 65 -35 60 -57 -2 -14 -6 -25 -8 -25 -3 0 -31 14 -64 30 -80 41
       -130 46 -218 25 -65 -16 -72 -20 -88 -53 -9 -20 -18 -49 -18 -64 -1 -22 -6
       -28 -23 -28 l-22 0 18 53 c18 52 18 54 0 65 -10 7 -28 12 -39 12 -31 0 -80 28
       -80 46 0 13 25 126 36 162 4 16 7 15 65 -5z m403 -43 c70 -27 78 -37 65 -84
       -6 -20 -13 -36 -17 -34 -119 63 -215 82 -295 60 -36 -10 -38 -10 -31 11 22 71
       14 67 123 67 76 0 113 -5 155 -20z m-1154 -158 c22 -22 43 -55 49 -77 16 -64
       41 -273 41 -353 0 -78 -8 -101 -48 -144 -46 -49 -155 -33 -226 32 l-41 39 -1
       98 c-1 54 -5 133 -9 175 -13 138 25 214 125 248 30 11 59 19 64 20 4 0 25 -17
       46 -38z m-3031 -60 l24 -82 -21 -23 c-12 -13 -42 -28 -67 -35 -25 -6 -45 -16
       -45 -21 0 -5 9 -30 20 -55 18 -43 18 -46 2 -46 -13 0 -24 16 -36 50 -10 28
       -22 50 -27 50 -5 0 -9 6 -9 14 0 9 -20 16 -62 21 -102 13 -134 8 -214 -33 -71
       -38 -74 -38 -80 -19 -5 16 1 28 27 49 60 51 161 72 261 55 41 -7 47 -6 52 11
       4 10 0 35 -9 55 -18 45 -19 47 -1 47 8 0 22 -22 32 -52 22 -66 37 -82 72 -75
       50 10 82 26 82 42 0 19 -2 19 -47 0 -19 -8 -41 -15 -48 -15 -15 0 -51 97 -40
       108 10 10 89 40 100 38 5 -1 20 -39 34 -84z m2236 48 c20 -20 20 -20 -102 -17
       -111 3 -145 9 -132 21 8 9 154 24 184 20 16 -3 39 -13 50 -24z m-647 -4 c4
       -16 0 -18 -29 -12 -39 7 -43 11 -34 26 11 18 59 8 63 -14z m2167 -16 c14 0 25
       -1 25 -3 0 -2 -7 -24 -16 -50 -17 -51 -24 -54 -87 -36 -29 8 -37 14 -33 27 3
       9 8 31 12 47 10 45 13 46 44 30 16 -8 40 -15 55 -15z m373 -5 c75 -36 79 -42
       62 -92 l-11 -30 -87 18 c-48 10 -122 18 -165 19 -77 0 -78 1 -71 23 19 60 24
       66 66 77 24 6 48 13 53 15 33 12 88 1 153 -30z m-4405 9 c35 -5 47 -12 56 -31
       6 -13 11 -27 11 -31 0 -5 -37 -8 -82 -8 -69 0 -93 -5 -145 -28 -35 -16 -68
       -35 -74 -42 -18 -22 -25 -17 -38 27 -10 34 -10 43 1 51 80 54 173 75 271 62z
       m2086 -70 c15 -3 53 -1 84 5 90 16 134 -17 129 -97 -2 -20 -4 -123 -5 -228 -2
       -141 -6 -195 -15 -207 -8 -9 -37 -27 -65 -42 -96 -47 -208 -27 -244 45 -7 14
       -13 52 -13 85 0 33 -7 105 -15 159 -24 159 -18 195 40 264 22 27 33 32 53 27
       13 -3 36 -8 51 -11z m-1107 -60 c28 -15 30 -19 25 -56 -8 -57 -52 -107 -132
       -150 -77 -40 -113 -76 -122 -119 -4 -23 -10 -28 -27 -24 -134 29 -187 25 -240
       -16 -15 -12 -29 -19 -32 -17 -4 5 -74 238 -74 250 0 12 32 25 151 61 63 19
       146 47 184 61 85 31 216 36 267 10z m-642 -114 c0 -10 -66 -50 -82 -50 -18 0
       -55 83 -40 88 5 1 29 13 53 25 l44 22 12 -40 c7 -22 13 -42 13 -45z m-286 54
       c48 -7 62 -21 80 -80 6 -20 3 -22 -56 -22 -52 0 -154 -20 -250 -48 -13 -4 -20
       5 -29 37 -14 46 -20 39 74 92 52 28 92 33 181 21z m3759 -49 c25 -13 36 -24
       32 -34 -19 -65 -64 -275 -59 -282 14 -23 24 1 54 129 18 75 34 139 36 141 6 6
       175 -71 225 -103 77 -49 107 -113 108 -232 2 -153 -47 -234 -199 -330 l-65
       -40 -32 19 c-18 10 -74 25 -124 32 -109 17 -129 31 -202 153 -62 103 -63 106
       -32 120 39 18 117 94 131 129 35 83 9 143 -76 178 -69 29 -130 73 -130 95 0
       49 247 67 333 25z m-1100 -164 c23 -15 62 -40 87 -54 25 -14 70 -48 100 -75
       67 -60 138 -97 213 -111 60 -11 137 -2 179 20 11 6 38 9 58 6 42 -5 110 -35
       110 -48 0 -9 -53 -24 -120 -33 -27 -4 -93 2 -165 14 -181 30 -218 25 -302 -35
       -69 -51 -122 -75 -167 -75 -21 0 -102 12 -180 26 -85 16 -162 24 -193 22 l-52
       -5 21 30 c11 16 23 50 26 75 5 52 4 50 138 157 78 62 165 114 192 115 8 0 32
       -13 55 -29z m-1073 -107 c113 -114 330 -262 390 -265 36 -1 -38 -20 -142 -35
       -188 -27 -273 -3 -356 102 -69 87 -128 108 -256 93 -188 -23 -235 -25 -304
       -18 -90 10 -157 40 -178 81 -9 16 -14 32 -11 34 2 2 35 0 73 -6 38 -6 119 -17
       179 -26 181 -26 351 -4 475 60 36 19 67 34 70 35 3 1 30 -24 60 -55z m-941 5
       c38 -8 50 -15 55 -33 16 -65 87 -107 210 -126 65 -10 98 -9 206 5 158 21 246
       18 283 -12 14 -11 46 -45 71 -75 93 -114 194 -127 531 -69 235 41 347 44 498
       13 172 -35 224 -28 320 46 82 63 121 69 291 42 138 -22 146 -22 225 -6 44 9
       87 19 95 22 9 3 29 -21 59 -73 96 -165 122 -187 242 -199 68 -6 135 -28 135
       -44 0 -4 -27 -33 -60 -64 -100 -92 -202 -113 -625 -126 -234 -7 -270 -11 -359
       -34 -54 -15 -107 -31 -118 -37 -110 -59 -643 -63 -1038 -8 -156 22 -677 116
       -825 149 -139 32 -245 88 -336 179 -96 97 -131 165 -131 255 0 35 4 71 9 80 8
       14 13 4 27 -48 11 -41 23 -66 32 -66 18 0 18 9 -7 95 -12 41 -19 81 -16 89 19
       49 117 69 226 45z m2608 -961 l44 -11 -6 -41 c-11 -73 -14 -78 -42 -71 -70 17
       -83 18 -83 2 0 -14 66 -37 108 -37 19 0 30 25 50 109 4 19 13 36 20 39 14 4
       15 -12 2 -56 -6 -23 -6 -39 2 -51 10 -16 14 -16 67 2 75 26 167 20 237 -16 44
       -22 51 -29 47 -50 l-5 -24 -61 25 c-90 36 -128 38 -213 12 -64 -20 -75 -28
       -89 -57 -9 -19 -17 -50 -18 -69 -2 -28 -6 -34 -24 -34 -22 0 -22 1 -7 51 18
       60 13 68 -42 74 -45 4 -92 26 -88 40 1 6 8 50 14 98 10 72 15 87 27 82 9 -3
       36 -10 60 -17z m378 -2 c87 -23 98 -32 90 -74 -4 -21 -8 -39 -11 -41 -2 -2
       -27 6 -56 19 -65 28 -161 37 -224 21 -25 -7 -49 -10 -52 -7 -3 3 -1 20 4 38 9
       30 15 34 64 44 76 16 126 16 185 0z m-3241 -149 c20 -89 49 -139 151 -264 89
       -110 94 -115 150 -145 49 -26 149 -28 214 -4 102 37 205 12 303 -75 60 -53
       103 -56 175 -12 26 16 63 35 82 41 46 16 164 15 205 -2 l33 -14 6 -107 c4 -60
       7 -130 7 -157 0 -38 3 -48 17 -48 15 0 15 14 10 149 l-7 150 88 -41 c48 -22
       121 -56 162 -76 89 -42 157 -47 213 -15 97 58 203 60 363 10 60 -19 122 -37
       138 -40 56 -9 98 12 163 82 l63 66 0 -65 c0 -36 3 -122 7 -192 5 -102 9 -128
       20 -128 13 0 14 32 11 202 l-3 202 44 13 c25 7 46 12 47 10 2 -2 -3 -43 -11
       -92 -10 -58 -11 -93 -5 -99 15 -15 20 -4 36 95 8 51 17 95 19 98 6 5 108 -11
       190 -30 100 -23 188 21 230 116 30 67 55 85 120 85 135 0 271 46 326 108 l31
       35 -7 88 c-8 110 3 121 59 57 26 -29 62 -56 96 -71 64 -28 84 -53 105 -134 19
       -73 19 -135 -1 -231 -22 -105 -56 -172 -124 -245 -114 -121 -190 -153 -680
       -287 -450 -123 -547 -145 -698 -161 -152 -15 -483 -7 -747 20 -111 11 -282 25
       -380 31 -347 22 -610 72 -834 161 -304 120 -501 272 -585 449 -30 62 -31 71
       -31 195 0 121 2 134 27 188 16 33 54 86 89 123 58 60 64 63 80 48 9 -8 25 -48
       33 -87z m1021 54 c60 -19 60 -19 63 -60 l3 -42 -29 15 c-65 33 -215 37 -273 6
       -32 -17 -39 -11 -39 34 0 40 2 44 33 54 54 17 176 14 242 -7z m274 -83 c0 -40
       -3 -68 -5 -62 -3 6 -25 9 -59 6 l-55 -4 0 60 0 61 38 4 c90 9 82 15 81 -65z
       m-151 6 c1 -27 8 -60 14 -72 11 -22 18 -24 77 -20 54 2 66 0 69 -13 4 -20 -38
       -39 -86 -39 -58 0 -66 -10 -58 -69 6 -45 5 -51 -11 -51 -14 0 -19 10 -21 48
       -4 77 -17 94 -91 125 -76 31 -134 34 -207 12 -66 -20 -74 -19 -74 8 0 57 190
       78 288 32 68 -31 83 -22 75 50 -5 38 -3 47 8 43 9 -3 15 -22 17 -54z m1097
       -23 c60 -19 60 -19 63 -60 l3 -42 -29 15 c-65 33 -215 37 -273 6 -32 -17 -39
       -11 -39 34 0 40 2 44 33 54 54 17 17 "></path>
            </g>
        </svg>