<?xml version="1.0" encoding="UTF-8"?><svg id="a" xmlns="http://www.w3.org/2000/svg" viewBox="0 0 1296 948.38"><defs><style>.b{fill:none;stroke:#000;stroke-miterlimit:10;stroke-width:3px;}</style></defs><path class="b" d="M828.61,711.85c6.33,2.86,7.44,6.76,7.44,6.76,0,0-1.35,19.6,7.44,24.33s58.65,50.02,36.03,45.29c-64.48-13.49-154.32-4.73-140.13,6.76s89.9,8.11,89.9,8.11c0,0,1.59,17.47-27.71,10.14-18.93-4.73-22.31-25.69-22.31-25.69,0,0,37.18-10.14,56.19-4.08s5.32,12.19,5.32,12.19l-8.11,12.17s62.19-9.46,43.26-17.95c-1.95-.88-4.57-1.67-7.73-2.4-20.46-4.68-63.41-6.09-92.21-3.99-9.82,.72-18,1.84-23.08,3.38-1.9,.58-3.64,1.05-5.22,1.45-16.98,4.21-16.41-1.45-16.41-1.45,0,0,12.17-10.82,14.87-20.95s15.55-12.84,15.55-12.84c0,0,26.36-12.17,25.01-25.69s9.8-29.57,22.31-37.85,27.71,3.38,18.93,15.55-36.5-3.38-31.77-12.84,18.4-7.44,18.4-7.44c0,0-3.84-48.07-.15-112.88,2.11-37.18-3.96-46.1-8.81-47.57-2.91-.88-5.38,.93-5.38,.93,0,0-491.42,.68-545.5,0-34.84-5.35-33.2,2.81-32.24,4.35s26.32,7.97,16.02-18.54c-18.01-46.36,20.95-40.56,20.95-40.56,0,0,77.73,3.38,125.44,0s94.25,6.08,119.26,3.79,31.77,5.68,39.21,28.66,16.9,5.41,16.9,3.38-5.41-21.63,19.6-25.01,30.42-24.33,27.71-31.09-6.76-28.39-6.76-34.84-16.22-36.82-19.6-49.66-2.03-42.59,3.38-50.02,30.74-29.89,32.45-33.12-6.36-6.81-13.89-4.12-1.08,7.53,4.42,12.24c5.97,5.15,23.66,8.11,33.8-.68s20.28-37.85,0-52.05-56.78-5.41-69.62-1.35-33.8,22.98-39.88,42.59-6.76,29.07-10.14-2.03,1-49.54,9.96-45.94-2.39,22.37-11.21,27.83-17.66,25.22-21.67,31.77c-1.01,1.65-2.8,5.53-3.54,1.82,0,0-6.16-27.89,27.14-61.44,37.85-22.31-16.22-43.26-55.43-57.46s-104.77-21.63-132.49-15.55-41.91,12.17-55.79,20.28-15.86,14.87-34.79,31.09-17.99,17.09-14.87,28.39,7.55,8.3,13.88,15.8,6.32,7.5,8.43,35.58c0,33.8,35.15,22.31,35.15,22.31,0,0,22.98-.68,28.39-2.7s98.01-12.17,154.79-7.44,64.22,27.04,64.22,27.04c0,0,3.38,37.18,0,65.57s-26.36,12.84-26.36,12.84c0,0-38.53-11.49-69.62-20.28s-129.78-6.08-159.21,4.06-3.02,9.46-3.02,9.46c0,0,12.84,3.4,29.07,5.41s130.46,3.38,130.46,3.38c0,0,56.78-2.03,78.41-31.09s-27.71-41.91-34.47-45.96-105.45-8.11-173.72-4.73-72.33,14.2-72.33,14.2c0,0-17.57,17.57-22.98,47.32s4.73,24.33,4.73,24.33c0,0,17.57,12.84,25.69-21.63,5.75-24.43-3.29-64.72-4.01-78.53s-6.63-21.79-7.27-33.44c-2.18-39.98-63.07-65.13-82-48.23s-22.05,34.54-14.87,45.29,10.14,1.35,26.36,1.35,8.58,8.61,5.81,9.46-9.15,5.47-13.92-2.7-6.76-13.52,4.73-20.95,18.25,4.06,22.98,14.87,0,37.18,0,37.18l-4.06,38.53s-12.17,18.25-17.57,62.19c-2.03,22.98,6.31,32.45,41.91,64.89s1.59,51.97-7.44,56.1-83.82-3.38-114.24-26.36c-30.42-22.98-25.01-60.16-25.01-60.16,0,0,1.35-150.06-2.7-167.64-4.06-17.57-18.25-166.29,114.24-175.07S278.38,.26,278.38,.26"/><path class="b" d="M939.46,824.06c44.1,17.14,56.04,37.61,64.22,54.08,9.93,20,10.7,34.47,10.7,34.47,0,0-127.64-20.28-114.12-1.35s31.09-1.35,31.09-1.35l-3.88-.73-6.94-1.3s-110.86-6.76-92.61,12.17c36.5,19.6,209.55,8.11,183.86-3.38-78.58-35.15-178.17-14.25-190.15-5.32-4.02,2.99-2.87,3.18-2.83,.86,19.6-89.9,71.99-81.39,76.72-82.74s7.76-21.96,14.87-29.07,18.93-4.06,18.93,0,2.03,27.71-5.41,23.66-21.63,7.44-21.63-2.7c0-5.07,.51-11.83,1.61-17.49s2.79-10.22,5.15-10.9c4.73-1.35,7.44-.68,9.46-5.41s4.73-93.96,0-124.38,0-141.87,0-141.87l-112.91,3.05"/><path class="b" d="M918.51,521.31l220.44-3.29s3.9,217.17,2.94,231.85c-.78,11.99-2.14,4.87-8.24,10.59-8.56,8.04-17.65,30.6-21.18,43.55s30.01-.59,40.6,2.94,15.62-3.15,9.42-12.95-8.83-23.87-14.12-27.66c-8.54-.34-2.22-20.99-56.49,68.26-7.5,12.34-16.16,22.04-21.18,28.83-29.17,39.43,7.12,14.52,19.42,14.12s82.38-3.53,105.92,4.71,0-20.6,0-20.6c0,0-27.07-36.48-28.25-41.78s-1.18-12.36,8.24,1.18,30.47,45.31,30.47,45.31c0,0,23.57,22.93,3.66,26.48-16.48,2.94-33.17,7.24-43.55,11.77-7.6,3.32-16.15,2.75-31.12,2.66-9.96-.05-16.43-4.62-24.19-15.02-11.22-15.05,6.47-4.71,17.07-7.65,0,0,17.65-6.47,30.6-2.35s11.77,8.83-1.18,15.89-65.27,3.52-94.1-7.07"/><line class="b" x1="1296" y1="518.02" x2="1138.95" y2="518.02"/></svg>