<svg version="1.0" xmlns="http://www.w3.org/2000/svg"
 width="85.000000pt" height="170.000000pt" viewBox="0 0 85.000000 170.000000"
 preserveAspectRatio="xMidYMid meet">

<g transform="translate(0.000000,170.000000) scale(0.100000,-0.100000)"
fill="#000000" stroke="none">
<path d="M182 1683 l-172 -3 0 -213 c0 -116 3 -492 7 -834 l6 -623 314 0 c263
0 313 2 313 14 0 30 134 116 180 116 16 0 20 5 16 18 -3 9 -35 145 -71 302
l-66 285 8 285 c8 267 2 411 -27 658 0 2 -177 0 -508 -5z m468 -45 c0 -7 7
-84 15 -171 13 -129 14 -208 6 -440 l-10 -282 65 -279 c35 -153 63 -281 60
-283 -2 -2 -32 -8 -66 -13 -60 -8 -176 -1 -305 20 -33 5 -79 10 -103 10 l-42
0 -64 97 c-62 96 -64 100 -75 198 -18 149 -19 157 -45 195 l-24 35 -4 453 -4
452 56 1 c109 3 495 15 518 17 12 1 22 -4 22 -10z m-566 -1142 c15 -118 16
-119 75 -212 l60 -93 -72 -51 c-41 -28 -73 -44 -74 -37 -3 20 -10 517 -7 515
1 -2 9 -56 18 -122z m351 -356 c77 -11 161 -20 187 -20 l48 0 -39 -35 -39 -35
-243 2 -244 3 75 52 c41 29 84 52 95 52 11 1 83 -8 160 -19z"/>
</g>
</svg>